# xmcd CD database file
#
# Track frame offsets:
#	182
#	12052
#	26357
#	39620
#	50935
#	64325
#	79100
#	89965
#	103787
#	113445
#	125322
#	141225
#	152007
#	163732
#	174742
#	187370
#	197840
#	208772
#	220265
#	230820
#	241805
#	254235
#
# Disc length: 3557 seconds
#
# Revision: 0
# Processed by: cddbd v1.4PL0 Copyright (c) Steve Scherf et al.
# Submitted via: CDex 1.50beta9
#
DISCID=500de316
DTITLE=Crystal Gayle - Country Moods And Memories
DYEAR=1995
DGENRE=Country
TTITLE0=Time Will Prove I'm Right
TTITLE1=Green Door
TTITLE2=Why Have You Left The One You Left Me For
TTITLE3=It's Alright With Me
TTITLE4=Loving You So Long Now
TTITLE5=Don't Treat Me Like A Stranger
TTITLE6=Restless
TTITLE7=Make A Dream Come True
TTITLE8=Your Kisses Will
TTITLE9=Sweet Baby On My Mind
TTITLE10=I'll Get Over You
TTITLE11=I Want To Lose Me In You
TTITLE12=A Woman's Heart (Is A Handy Place To Be)
TTITLE13=Forgettin' Bout You
TTITLE14=Counterfeit Love
TTITLE15=Oh My Soul
TTITLE16=Gonna Lay Me Down Beside My Memories
TTITLE17=Coming Closer
TTITLE18=Your Old Cold Shoulder
TTITLE19=You
TTITLE20=This Is My Year For Mexico
TTITLE21=When I Dream
EXTD=YEAR: 1995
EXTT0=
EXTT1=
EXTT2=
EXTT3=
EXTT4=
EXTT5=
EXTT6=
EXTT7=
EXTT8=
EXTT9=
EXTT10=
EXTT11=
EXTT12=
EXTT13=
EXTT14=
EXTT15=
EXTT16=
EXTT17=
EXTT18=
EXTT19=
EXTT20=
EXTT21=
PLAYORDER=
